<?xml version="1.0" standalone="no"?>
<!DOCTYPE svg PUBLIC "-//W3C//DTD SVG 20010904//EN"
 "http://www.w3.org/TR/2001/REC-SVG-20010904/DTD/svg10.dtd">
<svg version="1.0" xmlns="http://www.w3.org/2000/svg"
 width="439.000000pt" height="423.000000pt" viewBox="0 0 439.000000 423.000000"
 preserveAspectRatio="xMidYMid meet">

<g transform="translate(0.000000,423.000000) scale(0.100000,-0.100000)"
fill="#000000" stroke="none">
<path d="M1799 3957 c-62 -60 -101 -105 -110 -130 -13 -36 -14 -37 -49 -30
-90 20 -230 -2 -300 -47 -29 -18 -1 -21 47 -4 26 9 89 19 138 21 104 6 175 -9
302 -63 100 -43 147 -42 58 2 -33 16 -61 29 -62 29 -1 0 5 29 13 65 21 92 64
202 78 197 15 -5 141 -240 160 -301 24 -74 20 -133 -19 -248 -74 -218 -284
-495 -429 -567 -79 -38 -187 -64 -248 -58 -59 5 -153 52 -180 89 -27 39 -52
279 -45 438 6 138 46 329 88 415 59 124 174 239 217 216 10 -5 36 -42 56 -81
51 -96 66 -79 16 19 -63 125 -105 129 -214 18 -72 -73 -113 -147 -154 -277
-43 -135 -55 -239 -47 -400 15 -319 30 -375 109 -429 48 -33 138 -61 196 -61
56 0 147 27 221 66 131 69 225 178 368 426 98 172 124 239 124 329 1 86 -19
136 -116 298 -31 52 -57 100 -57 108 0 17 -36 53 -53 53 -7 0 -55 -42 -108
-93z m12 -74 c-6 -21 -12 -59 -13 -86 -2 -26 -3 -47 -3 -47 0 1 -23 9 -51 18
l-51 18 60 72 c34 39 63 70 65 68 2 -2 -1 -21 -7 -43z"/>
<path d="M1223 3555 c-39 -17 -42 -37 -8 -70 29 -30 54 -31 104 -6 65 34 68
46 18 70 -50 24 -70 25 -114 6z"/>
<path d="M1660 3550 c-31 -12 -52 -44 -44 -65 4 -9 19 -22 35 -30 55 -29 142
-13 183 34 17 19 17 21 2 21 -9 0 -29 9 -45 21 -32 24 -95 33 -131 19z"/>
<path d="M1235 3380 c-44 -17 -48 -34 -30 -115 20 -90 42 -112 102 -100 124
23 181 128 105 196 -29 26 -40 29 -95 28 -34 0 -71 -4 -82 -9z m161 -64 c6
-25 -1 -46 -15 -46 -4 0 -12 16 -18 35 -10 31 -9 35 8 35 11 0 21 -9 25 -24z"/>
<path d="M2027 3215 c-9 -45 7 -101 49 -173 36 -62 79 -108 153 -164 96 -72
105 -90 136 -263 17 -93 36 -168 51 -197 14 -27 26 -48 28 -48 1 0 -5 25 -16
55 -10 30 -25 110 -34 177 -17 140 -29 191 -51 224 -8 13 -57 55 -108 94 -131
99 -185 177 -195 280 l-6 55 -7 -40z"/>
<path d="M1428 3110 c-64 -33 -124 -57 -132 -54 -8 3 -21 20 -30 37 -15 31
-16 31 -16 7 0 -34 24 -66 55 -74 26 -7 75 14 147 62 40 26 55 25 44 -4 -5
-13 -9 -14 -21 -4 -19 16 -20 0 -2 -25 19 -25 36 -11 43 37 5 28 13 42 25 45
18 5 28 34 12 32 -5 0 -61 -27 -125 -59z"/>
<path d="M1979 3049 c-24 -45 -60 -85 -130 -150 -126 -113 -250 -206 -298
-220 -49 -14 -105 2 -142 42 l-27 29 -53 -71 c-64 -83 -86 -123 -139 -251 -66
-159 -84 -298 -59 -473 8 -59 7 -123 -7 -288 -17 -216 -16 -259 10 -452 32
-233 37 -319 26 -421 -15 -138 -25 -169 -61 -196 -65 -48 -96 -87 -108 -133
-13 -50 -2 -88 31 -109 26 -16 32 -1 12 29 -27 41 -5 96 65 165 67 65 76 93
90 249 10 112 2 262 -25 436 -8 55 -15 127 -14 160 2 472 8 819 14 855 16 88
104 295 158 369 28 39 55 71 59 71 4 0 21 -13 39 -30 26 -24 29 -32 21 -49
-22 -39 -7 -111 23 -111 23 0 47 37 54 85 7 43 10 48 46 60 134 46 426 327
461 443 13 44 -14 21 -46 -39z m-494 -497 c-6 -23 -7 -24 -23 -9 -15 15 -14
19 3 54 l19 38 4 -29 c2 -15 1 -40 -3 -54z"/>
<path d="M2400 2755 c7 -8 17 -15 22 -15 21 0 249 -94 348 -143 131 -65 196
-127 272 -257 176 -301 314 -701 324 -940 2 -58 16 -163 29 -235 14 -71 37
-212 50 -313 24 -178 38 -225 75 -267 18 -19 24 -37 21 -62 -2 -23 -25 -14
-53 19 l-27 33 -1 -42 c0 -30 -4 -43 -14 -43 -16 0 -26 21 -26 57 0 35 -20 24
-34 -17 -15 -48 -42 -47 -38 0 2 19 4 94 4 165 0 267 -43 371 -328 800 -183
276 -225 324 -318 370 -107 53 -115 38 -13 -26 48 -30 87 -57 87 -60 0 -3 -27
-9 -61 -12 -33 -4 -93 -18 -133 -32 -40 -14 -77 -25 -83 -25 -6 0 -28 30 -48
66 -20 36 -38 64 -40 62 -2 -2 10 -42 27 -88 28 -80 31 -97 39 -295 4 -115 6
-219 4 -230 -9 -38 -55 -622 -55 -692 0 -45 5 -76 15 -89 19 -25 19 -48 0 -64
-19 -16 -55 -3 -55 20 0 49 -27 68 -32 23 -2 -22 -8 -28 -28 -28 -20 0 -26 6
-31 30 l-6 30 -7 -27 c-8 -28 -35 -41 -57 -27 -10 6 -3 28 29 96 65 137 73
190 75 537 l2 301 -27 80 c-40 118 -84 182 -226 334 -71 75 -150 163 -177 196
-60 76 -61 76 -42 40 24 -48 124 -184 188 -257 32 -36 59 -69 59 -73 0 -10
-107 5 -187 26 -103 27 -164 57 -291 142 -150 101 -200 114 -287 71 l-30 -14
28 5 c15 3 47 8 72 12 55 7 57 0 16 -88 -62 -135 -91 -385 -91 -795 0 -157 5
-328 11 -379 14 -121 -2 -188 -58 -234 -21 -17 -42 -30 -48 -28 -17 6 -17 43
0 57 17 14 20 30 6 30 -5 0 -24 -12 -41 -26 -22 -19 -30 -34 -28 -52 7 -59 90
-54 150 9 57 60 71 144 47 289 -11 70 -1 319 27 650 27 313 50 430 100 508
l15 23 42 -34 c68 -55 224 -157 273 -177 59 -26 230 -60 284 -58 32 1 47 -4
58 -18 27 -35 73 -146 93 -223 27 -102 44 -460 30 -620 -9 -108 -12 -118 -62
-216 -52 -103 -52 -104 -35 -131 18 -26 20 -26 102 -22 46 2 84 1 84 -4 0 -16
77 -8 93 10 21 23 21 31 1 93 -12 37 -15 69 -11 117 61 666 65 740 46 941 -8
92 -8 116 3 126 19 18 164 66 219 72 89 11 83 17 283 -285 101 -152 197 -304
214 -337 46 -92 71 -185 82 -308 11 -111 8 -157 -12 -229 -21 -71 17 -117 72
-88 16 9 25 9 35 0 10 -9 23 -9 43 -2 16 5 40 8 54 5 31 -6 68 26 68 57 0 11
-14 39 -30 62 -39 54 -56 117 -70 253 -5 61 -23 186 -40 278 -16 92 -34 216
-41 275 -12 117 -66 374 -99 473 -12 34 -34 91 -50 126 -16 35 -25 63 -20 63
5 0 48 -10 95 -22 84 -21 87 -21 168 -4 102 22 135 39 143 73 6 21 1 31 -21
51 -24 20 -35 23 -69 18 -124 -18 -193 -19 -247 -1 -117 38 -170 79 -214 165
-35 70 -121 174 -177 215 -60 45 -300 152 -428 192 -88 27 -97 28 -80 8z m782
-556 c78 -56 215 -81 325 -60 53 10 90 4 98 -17 8 -22 -4 -31 -66 -48 -88 -24
-173 -20 -264 13 -77 27 -81 30 -108 81 -16 28 -25 52 -22 52 4 0 20 -10 37
-21z"/>
<path d="M2117 1573 c-2 -5 2 -46 9 -93 7 -47 18 -162 24 -256 16 -231 4 -274
-90 -334 -69 -44 -120 -103 -120 -139 0 -33 22 -56 46 -47 15 6 15 8 -1 26
-15 17 -16 24 -5 50 7 17 34 45 59 62 96 64 139 124 161 224 19 85 -36 514
-66 514 -7 0 -15 -3 -17 -7z"/>
<path d="M2261 913 c-20 -120 -59 -193 -102 -193 -29 0 -32 18 -9 50 16 22 18
30 7 30 -37 0 -62 -71 -35 -98 38 -38 119 20 143 101 19 65 31 187 18 187 -5
0 -15 -35 -22 -77z"/>
<path d="M2056 789 c-14 -17 -26 -38 -26 -48 0 -20 30 -51 48 -51 17 0 15 27
-3 34 -22 8 -18 29 10 56 14 13 25 27 25 32 0 18 -30 6 -54 -23z"/>
<path d="M1123 444 c-26 -20 -33 -33 -33 -60 0 -28 4 -35 25 -40 29 -7 55 1
55 17 0 6 -6 9 -14 6 -8 -3 -20 1 -27 9 -10 12 -6 21 19 47 18 18 32 36 32 40
0 14 -26 6 -57 -19z"/>
</g>
</svg>
