<?xml version="1.0" standalone="no"?>
<!DOCTYPE svg PUBLIC "-//W3C//DTD SVG 20010904//EN"
 "http://www.w3.org/TR/2001/REC-SVG-20010904/DTD/svg10.dtd">
<svg version="1.0" xmlns="http://www.w3.org/2000/svg"
 width="457.000000pt" height="426.000000pt" viewBox="0 0 457.000000 426.000000"
 preserveAspectRatio="xMidYMid meet">

<g transform="translate(0.000000,426.000000) scale(0.100000,-0.100000)"
fill="#000000" stroke="none">
<path d="M2275 4160 c9 -120 -3 -150 -54 -142 -43 6 -154 -15 -220 -42 l-56
-23 -42 43 c-25 24 -62 49 -89 58 -47 16 -155 22 -167 10 -4 -4 7 -22 23 -40
86 -98 106 -190 95 -424 -3 -80 -10 -148 -14 -152 -3 -4 -31 8 -60 28 -76 51
-116 66 -182 65 -97 0 -176 -49 -221 -135 -38 -74 -35 -117 36 -431 36 -159
62 -293 58 -296 -8 -7 -169 -69 -295 -114 -92 -32 -134 -59 -164 -104 -27 -40
-31 -115 -8 -148 15 -21 14 -23 -12 -36 -15 -8 -63 -22 -105 -31 -118 -26
-158 -69 -158 -169 0 -80 52 -220 121 -324 l21 -33 -329 0 c-180 0 -338 -3
-350 -6 -38 -10 -27 11 54 103 118 135 115 130 55 98 -134 -72 -222 -239 -209
-395 3 -36 11 -80 17 -97 l12 -33 458 0 457 0 -24 -47 c-21 -40 -24 -59 -21
-119 4 -93 40 -155 117 -201 92 -55 95 -55 527 43 374 85 394 89 509 88 221 0
298 -33 703 -295 l283 -184 3 -125 c3 -94 8 -139 23 -180 62 -170 151 -261
311 -320 154 -56 294 -63 373 -18 74 41 83 88 49 251 -16 78 -18 105 -10 143
24 105 53 141 246 294 336 268 476 443 518 652 32 157 13 296 -62 448 -50 102
-72 127 -374 415 -70 67 -138 141 -153 168 -15 27 -43 107 -61 179 -21 80 -47
156 -68 193 -32 58 -34 66 -24 104 22 86 -24 202 -100 255 -71 49 -132 57
-242 34 l-57 -11 -154 83 c-334 180 -465 290 -525 439 -16 39 -16 43 1 55 31
23 15 57 -48 99 -69 46 -101 88 -174 229 -59 117 -105 166 -172 186 -75 23
-74 24 -66 -88z m134 -7 c41 -48 103 -164 115 -215 3 -15 27 -44 53 -65 90
-73 119 -102 102 -103 -9 0 -22 -7 -29 -15 -11 -13 -8 -22 22 -53 75 -79 88
-118 37 -107 -28 6 -31 5 -26 -11 26 -89 40 -154 36 -159 -4 -3 -26 6 -49 19
-53 30 -67 25 -39 -14 29 -39 21 -77 -41 -177 -53 -85 -59 -103 -36 -103 39 0
112 116 123 196 5 36 9 44 22 38 9 -4 26 -9 38 -11 34 -8 39 34 13 112 -33 98
-12 102 39 8 14 -26 45 -61 68 -78 23 -16 42 -35 42 -41 1 -6 -24 -51 -55
-100 -95 -153 -205 -247 -327 -278 -66 -17 -77 -15 -133 31 -50 40 -98 57
-223 78 -88 15 -134 31 -188 65 -20 13 -24 12 -36 -3 -12 -17 -14 -17 -40 9
-23 23 -57 104 -57 138 -1 27 -17 38 -38 27 l-21 -11 2 272 c2 304 -4 344 -65
414 -26 30 -28 34 -11 34 56 0 122 -31 167 -80 l46 -49 83 31 c60 23 106 33
171 37 89 6 90 6 110 40 14 24 20 57 23 115 1 45 3 82 3 84 1 13 66 -37 99
-75z m554 -795 c7 -21 -21 -116 -49 -163 -53 -91 -168 -185 -225 -185 l-32 0
61 56 c59 53 147 173 191 262 21 41 44 54 54 30z m198 -114 c239 -119 380
-217 552 -383 101 -97 118 -123 153 -222 36 -102 42 -229 16 -328 -13 -51 -15
-69 -6 -56 11 15 25 67 36 140 2 15 14 4 49 -45 46 -64 158 -177 292 -295 76
-66 160 -165 201 -236 91 -158 105 -369 37 -545 -60 -153 -160 -271 -416 -485
-297 -250 -331 -304 -304 -495 15 -112 4 -163 -44 -198 -25 -18 -42 -21 -130
-20 -83 1 -115 6 -169 26 -148 56 -255 147 -311 267 -45 94 -49 215 -13 340
48 169 131 306 257 426 41 39 148 119 239 179 328 217 420 319 420 468 0 83
-44 144 -166 231 -29 20 -69 56 -90 79 -21 23 -34 33 -30 23 37 -96 48 -145
44 -197 -5 -71 -37 -120 -98 -151 -45 -22 -49 -22 -589 -25 -435 -2 -546 0
-553 10 -15 25 -8 67 17 97 39 46 82 56 235 55 113 -1 151 -6 235 -29 129 -35
124 -34 147 -3 31 40 17 74 -55 138 -143 127 -205 205 -243 305 -27 72 -26
220 4 294 18 47 19 51 3 37 -29 -26 -62 -103 -74 -172 -30 -174 62 -355 263
-517 l45 -37 -56 0 c-31 0 -103 10 -160 21 -74 15 -123 20 -170 16 l-66 -6 -9
192 -9 192 -19 -175 c-10 -96 -22 -185 -27 -196 -4 -12 -27 -32 -51 -45 -55
-31 -81 -78 -73 -135 5 -36 3 -42 -14 -47 -11 -3 -35 3 -53 12 -28 14 -33 22
-36 58 -3 37 1 45 42 85 68 67 71 85 66 433 -3 165 -5 354 -5 420 l0 119 70
18 c124 32 211 82 302 174 63 64 91 101 124 168 23 47 46 86 51 86 4 0 67 -30
139 -66z m-928 -200 c133 -34 148 -55 110 -151 -42 -105 -33 -173 22 -173 42
0 50 23 36 101 -15 83 -9 103 9 28 14 -56 9 -264 -6 -279 -5 -5 -41 2 -80 15
-203 69 -370 55 -669 -55 -60 -22 -148 -47 -195 -56 -47 -9 -108 -20 -137 -25
-30 -6 -62 -20 -78 -34 l-26 -25 -38 40 c-23 24 -44 38 -53 35 -8 -3 -23 3
-33 15 -28 30 -75 26 -110 -10 -34 -35 -70 -44 -39 -9 29 32 80 55 215 94 162
48 253 86 490 206 201 102 340 187 419 258 51 46 72 49 163 25z m145 -262 c3
-34 0 -41 -12 -36 -19 7 -29 38 -21 65 11 33 30 16 33 -29z m-1296 -321 c84
-71 98 -85 98 -102 0 -57 -183 -75 -235 -22 -25 24 -15 66 20 82 17 8 32 18
33 23 7 16 33 38 47 38 7 0 24 -9 37 -19z m353 -108 c-9 -102 -32 -204 -61
-275 -26 -62 -114 -212 -120 -205 -3 2 2 31 11 63 9 32 18 84 21 115 9 75 -18
125 -95 182 l-58 43 26 12 c15 7 40 29 56 50 51 68 92 88 189 91 l38 1 -7 -77z
m-338 -128 c79 -39 118 -80 134 -140 13 -47 1 -62 -32 -37 -15 12 -50 22 -94
26 -53 5 -85 16 -132 42 -42 23 -74 34 -102 34 -23 0 -41 4 -41 10 0 21 25 61
48 76 65 43 115 40 219 -11z m-319 -27 c7 -7 12 -28 12 -47 0 -82 63 -155 178
-207 l53 -23 -6 -45 c-9 -55 6 -86 41 -86 18 0 46 20 95 67 38 36 69 63 69 59
0 -22 -75 -158 -93 -170 -16 -11 -52 -14 -132 -12 -130 2 -191 23 -225 78 -20
31 -21 42 -16 173 l6 140 -26 -30 -26 -30 6 35 c3 19 16 43 27 53 30 24 16 34
-17 12 -26 -16 -26 -20 -22 -89 5 -65 4 -68 -8 -41 -16 37 -17 75 -3 112 21
56 59 79 87 51z m3118 -285 c36 -23 64 -84 64 -141 0 -94 -74 -193 -218 -290
l-54 -36 -266 -3 c-876 -9 -3354 -24 -3358 -20 -8 8 -21 262 -14 270 4 5 189
7 411 5 429 -4 439 -5 506 -54 41 -31 52 -30 111 6 32 20 70 34 113 40 35 5
650 11 1367 13 1079 4 1305 7 1319 18 14 12 12 15 -23 21 -21 4 -58 7 -82 7
l-44 1 37 42 c20 23 43 64 53 90 18 53 35 60 78 31z m-2870 -224 c10 -17 -13
-36 -27 -22 -12 12 -4 33 11 33 5 0 12 -5 16 -11z m2584 -293 c0 -2 -28 -24
-62 -49 -35 -24 -85 -63 -113 -86 l-50 -41 -17 72 c-28 117 -37 108 112 108
72 0 130 -2 130 -4z"/>
<path d="M2100 3924 c14 -16 31 -34 38 -42 19 -21 12 -22 -50 -5 -36 10 -69
13 -94 8 l-38 -7 24 -18 24 -18 -42 -11 c-53 -15 -63 -31 -20 -31 18 0 52 -9
76 -20 23 -10 42 -17 42 -15 0 9 -52 38 -83 46 -25 7 -19 8 30 6 l62 -3 -29
18 c-17 10 -30 22 -30 28 0 17 79 11 120 -10 50 -25 69 -26 47 -2 -10 10 -17
22 -17 27 0 5 -7 17 -17 27 -15 17 -15 18 0 18 9 0 37 -19 62 -43 46 -44 61
-41 25 6 -12 15 -43 33 -73 42 -28 9 -59 19 -67 21 -8 3 -4 -7 10 -22z"/>
<path d="M2269 3693 c-8 -9 -14 -39 -14 -69 0 -41 5 -58 21 -75 18 -17 25 -19
42 -10 40 21 41 112 2 151 -24 24 -33 25 -51 3z"/>
<path d="M1901 3624 c-37 -47 -20 -145 25 -152 31 -4 48 24 48 83 1 38 -4 59
-18 74 -25 27 -30 26 -55 -5z"/>
<path d="M2535 3479 c-41 -16 -66 -18 -136 -14 -67 5 -95 3 -127 -10 -23 -10
-42 -21 -42 -26 0 -12 8 -11 58 6 29 10 60 13 92 9 52 -7 129 8 195 37 53 23
24 22 -40 -2z"/>
<path d="M1994 3372 c-42 -23 -134 -104 -109 -96 11 4 43 24 70 44 28 21 59
40 69 41 22 5 35 29 14 29 -7 -1 -27 -9 -44 -18z"/>
<path d="M2247 3383 c-4 -3 -7 -9 -7 -12 0 -9 237 -7 246 2 14 14 -2 16 -39 6
-25 -7 -49 -7 -74 0 -43 12 -116 14 -126 4z"/>
<path d="M2012 3315 c-31 -26 -107 -125 -96 -125 6 0 144 139 144 146 0 11
-21 2 -48 -21z"/>
<path d="M2147 3284 c-4 -4 -4 -10 -1 -15 6 -10 34 0 34 12 0 10 -24 12 -33 3z"/>
</g>
</svg>
